<svg width="40" height="40" viewBox="0 0 56 56" fill="none" xmlns="http://www.w3.org/2000/svg">
<g clip-path="url(#clip0_6_28)">
<path d="M53 28C53 14.1979 41.8021 3 28 3C14.1979 3 3 14.1979 3 28C3 41.8021 14.1979 53 28 53C41.8021 53 53 41.8021 53 28Z" stroke="#E6E6E6" stroke-width="5" stroke-miterlimit="10"/>
<path d="M39.6497 15.0705L25.2275 20.8394C24.237 21.2355 23.3373 21.8287 22.583 22.583C21.8287 23.3373 21.2355 24.237 20.8394 25.2275L15.0705 39.6497C14.9989 39.8286 14.9814 40.0246 15.0201 40.2134C15.0588 40.4021 15.1521 40.5754 15.2883 40.7117C15.4246 40.8479 15.5979 40.9412 15.7866 40.9799C15.9754 41.0186 16.1714 41.0011 16.3503 40.9295L30.7725 35.1606C31.763 34.7645 32.6627 34.1713 33.417 33.417C34.1713 32.6627 34.7645 31.763 35.1606 30.7725L40.9295 16.3503C41.0011 16.1714 41.0186 15.9754 40.9799 15.7866C40.9412 15.5979 40.8479 15.4246 40.7117 15.2883C40.5754 15.1521 40.4021 15.0588 40.2134 15.0201C40.0246 14.9814 39.8286 14.9989 39.6497 15.0705ZM28 30.9533C27.4159 30.9533 26.8449 30.7801 26.3592 30.4556C25.8735 30.1311 25.495 29.6698 25.2715 29.1302C25.0479 28.5905 24.9894 27.9967 25.1034 27.4238C25.2174 26.8509 25.4986 26.3247 25.9117 25.9117C26.3247 25.4986 26.8509 25.2174 27.4238 25.1034C27.9967 24.9894 28.5905 25.0479 29.1302 25.2715C29.6698 25.495 30.1311 25.8735 30.4556 26.3592C30.7801 26.8449 30.9533 27.4159 30.9533 28C30.9533 28.7833 30.6422 29.5345 30.0883 30.0883C29.5345 30.6422 28.7833 30.9533 28 30.9533Z" fill="#E6E6E6"/>
</g>
<defs>
<clipPath id="clip0_6_28">
<rect width="56" height="56" fill="white"/>
</clipPath>
</defs>
</svg>